<svg width="32" height="31" viewBox="0 0 32 31" fill="none" xmlns="http://www.w3.org/2000/svg">
<circle cx="16.0688" cy="15.4298" r="15.4297" fill="#20DDBB"/>
<g clip-path="url(#clip0_1_277)">
<mask id="path-2-inside-1_1_277" fill="white">
<path fill-rule="evenodd" clip-rule="evenodd" d="M11.2023 10.84C11.363 10.5393 11.7369 10.4259 12.0375 10.5865L13.8591 11.5599C14.0322 11.6524 14.1509 11.8216 14.1791 12.0158L14.3562 13.2393H20.3925C20.5878 13.2393 20.7716 13.3317 20.8881 13.4886C21.0045 13.6455 21.0398 13.8482 20.9832 14.0352L19.9229 17.5395C19.8441 17.7999 19.6041 17.978 19.3321 17.978H14.3295C14.0228 17.978 13.7627 17.7528 13.7187 17.4493L13.2112 13.9449L13.0022 12.5015L11.4558 11.6752C11.1551 11.5145 11.0417 11.1406 11.2023 10.84ZM14.535 14.4736L14.8638 16.7436H18.8741L19.5609 14.4736H14.535ZM15.4395 19.4419C15.4395 19.9532 15.0276 20.3677 14.5194 20.3677C14.0113 20.3677 13.5993 19.9532 13.5993 19.4419C13.5993 18.9306 14.0113 18.5161 14.5194 18.5161C15.0276 18.5161 15.4395 18.9306 15.4395 19.4419ZM18.7991 20.3677C19.3073 20.3677 19.7192 19.9532 19.7192 19.4419C19.7192 18.9306 19.3073 18.5161 18.7991 18.5161C18.2909 18.5161 17.879 18.9306 17.879 19.4419C17.879 19.9532 18.2909 20.3677 18.7991 20.3677Z"/>
</mask>
<path fill-rule="evenodd" clip-rule="evenodd" d="M11.2023 10.84C11.363 10.5393 11.7369 10.4259 12.0375 10.5865L13.8591 11.5599C14.0322 11.6524 14.1509 11.8216 14.1791 12.0158L14.3562 13.2393H20.3925C20.5878 13.2393 20.7716 13.3317 20.8881 13.4886C21.0045 13.6455 21.0398 13.8482 20.9832 14.0352L19.9229 17.5395C19.8441 17.7999 19.6041 17.978 19.3321 17.978H14.3295C14.0228 17.978 13.7627 17.7528 13.7187 17.4493L13.2112 13.9449L13.0022 12.5015L11.4558 11.6752C11.1551 11.5145 11.0417 11.1406 11.2023 10.84ZM14.535 14.4736L14.8638 16.7436H18.8741L19.5609 14.4736H14.535ZM15.4395 19.4419C15.4395 19.9532 15.0276 20.3677 14.5194 20.3677C14.0113 20.3677 13.5993 19.9532 13.5993 19.4419C13.5993 18.9306 14.0113 18.5161 14.5194 18.5161C15.0276 18.5161 15.4395 18.9306 15.4395 19.4419ZM18.7991 20.3677C19.3073 20.3677 19.7192 19.9532 19.7192 19.4419C19.7192 18.9306 19.3073 18.5161 18.7991 18.5161C18.2909 18.5161 17.879 18.9306 17.879 19.4419C17.879 19.9532 18.2909 20.3677 18.7991 20.3677Z" fill="white"/>
<path d="M12.0375 10.5865L11.7466 11.1308L11.7466 11.1308L12.0375 10.5865ZM11.2023 10.84L11.7466 11.1308L11.7466 11.1308L11.2023 10.84ZM13.8591 11.5599L13.5682 12.1043L13.8591 11.5599ZM14.1791 12.0158L14.7899 11.9274V11.9274L14.1791 12.0158ZM14.3562 13.2393L13.7454 13.3277L13.822 13.8564H14.3562V13.2393ZM20.8881 13.4886L20.3925 13.8564V13.8564L20.8881 13.4886ZM20.9832 14.0352L21.5739 14.2139L21.5739 14.2139L20.9832 14.0352ZM19.9229 17.5395L19.3321 17.3608L19.3321 17.3608L19.9229 17.5395ZM13.7187 17.4493L13.1079 17.5377V17.5377L13.7187 17.4493ZM13.2112 13.9449L13.822 13.8564L13.2112 13.9449ZM13.0022 12.5015L13.613 12.4131L13.5682 12.1043L13.293 11.9572L13.0022 12.5015ZM11.4558 11.6752L11.7466 11.1308L11.7466 11.1308L11.4558 11.6752ZM14.8638 16.7436L14.2529 16.8321L14.3295 17.3608H14.8638V16.7436ZM14.535 14.4736V13.8564H13.822L13.9242 14.5621L14.535 14.4736ZM18.8741 16.7436V17.3608H19.3321L19.4648 16.9223L18.8741 16.7436ZM19.5609 14.4736L20.1516 14.6524L20.3925 13.8564H19.5609V14.4736ZM12.3284 10.0422C11.7272 9.72086 10.9793 9.94781 10.658 10.5491L11.7466 11.1308H11.7466L12.3284 10.0422ZM14.15 11.0156L12.3284 10.0422L11.7466 11.1308L13.5682 12.1043L14.15 11.0156ZM14.7899 11.9274C14.7336 11.539 14.4961 11.2005 14.15 11.0156L13.5682 12.1043H13.5682L14.7899 11.9274ZM14.9671 13.1508L14.7899 11.9274L13.5682 12.1043L13.7454 13.3277L14.9671 13.1508ZM20.3925 12.6221H14.3562V13.8564H20.3925V12.6221ZM21.3837 13.1208C21.1508 12.807 20.7832 12.6221 20.3925 12.6221V13.8564L20.3925 13.8564L21.3837 13.1208ZM21.5739 14.2139C21.6871 13.84 21.6165 13.4345 21.3837 13.1208L20.3925 13.8564L20.3925 13.8564L21.5739 14.2139ZM20.5136 17.7183L21.5739 14.2139L20.3925 13.8564L19.3321 17.3608L20.5136 17.7183ZM19.3321 18.5952C19.8762 18.5952 20.3561 18.239 20.5136 17.7183L19.3321 17.3608L19.3321 17.3608V18.5952ZM14.3295 18.5952H19.3321V17.3608H14.3295V18.5952ZM13.1079 17.5377C13.1958 18.1448 13.7161 18.5952 14.3295 18.5952V17.3608L14.3295 17.3608L13.1079 17.5377ZM12.6004 14.0334L13.1079 17.5377L14.3295 17.3608L13.822 13.8564L12.6004 14.0334ZM12.3913 12.59L12.6004 14.0334L13.822 13.8564L13.613 12.4131L12.3913 12.59ZM11.1649 12.2195L12.7113 13.0459L13.293 11.9572L11.7466 11.1308L11.1649 12.2195ZM10.658 10.5491C10.3367 11.1503 10.5636 11.8982 11.1649 12.2195L11.7466 11.1308L11.7466 11.1308L10.658 10.5491ZM15.4746 16.6551L15.1458 14.3852L13.9242 14.5621L14.2529 16.8321L15.4746 16.6551ZM18.8741 16.1264H14.8638V17.3608H18.8741V16.1264ZM18.9702 14.2949L18.2833 16.5649L19.4648 16.9223L20.1516 14.6524L18.9702 14.2949ZM14.535 15.0908H19.5609V13.8564H14.535V15.0908ZM14.5194 20.9849C15.372 20.9849 16.0567 20.2905 16.0567 19.4419H14.8224C14.8224 19.6159 14.6832 19.7505 14.5194 19.7505V20.9849ZM12.9821 19.4419C12.9821 20.2905 13.6668 20.9849 14.5194 20.9849V19.7505C14.3557 19.7505 14.2165 19.6159 14.2165 19.4419H12.9821ZM14.5194 17.8989C13.6668 17.8989 12.9821 18.5933 12.9821 19.4419H14.2165C14.2165 19.2679 14.3557 19.1333 14.5194 19.1333V17.8989ZM16.0567 19.4419C16.0567 18.5933 15.372 17.8989 14.5194 17.8989V19.1333C14.6832 19.1333 14.8224 19.2679 14.8224 19.4419H16.0567ZM19.102 19.4419C19.102 19.6159 18.9628 19.7505 18.7991 19.7505V20.9849C19.6517 20.9849 20.3364 20.2905 20.3364 19.4419H19.102ZM18.7991 19.1333C18.9628 19.1333 19.102 19.2679 19.102 19.4419H20.3364C20.3364 18.5933 19.6517 17.8989 18.7991 17.8989V19.1333ZM18.4961 19.4419C18.4961 19.2679 18.6353 19.1333 18.7991 19.1333V17.8989C17.9465 17.8989 17.2618 18.5933 17.2618 19.4419H18.4961ZM18.7991 19.7505C18.6353 19.7505 18.4961 19.6159 18.4961 19.4419H17.2618C17.2618 20.2905 17.9465 20.9849 18.7991 20.9849V19.7505Z" fill="white" mask="url(#path-2-inside-1_1_277)"/>
</g>
<defs>
<clipPath id="clip0_1_277">
<rect width="9.875" height="9.875" fill="white" transform="translate(11.1309 10.4924)"/>
</clipPath>
</defs>
</svg>
