<svg width="40" height="41" viewBox="0 0 40 41" fill="none" xmlns="http://www.w3.org/2000/svg">
<rect x="0.154297" y="1.01367" width="39.6914" height="39.6914" rx="9.8457" fill="#1E2F57" stroke="#182644" stroke-width="0.308594"/>
<g clip-path="url(#clip0_1_560)">
<mask id="path-2-inside-1_1_560" fill="white">
<path fill-rule="evenodd" clip-rule="evenodd" d="M14.0862 15.1103C14.2815 14.745 14.7359 14.6071 15.1012 14.8023L17.3148 15.9852C17.5251 16.0976 17.6694 16.3032 17.7036 16.5392L17.9189 18.0259H25.254C25.4914 18.0259 25.7148 18.1383 25.8563 18.3289C25.9978 18.5196 26.0406 18.7659 25.9719 18.9931L24.6834 23.2516C24.5876 23.568 24.2961 23.7844 23.9655 23.7844H17.8864C17.5137 23.7844 17.1975 23.5107 17.1441 23.1419L16.5274 18.8834L16.2734 17.1295L14.3942 16.1253C14.0289 15.9301 13.891 15.4756 14.0862 15.1103ZM18.1361 19.5259L18.5356 22.2844H23.4089L24.2435 19.5259H18.1361ZM19.2342 25.5633C19.2342 26.1846 18.7336 26.6883 18.1161 26.6883C17.4986 26.6883 16.998 26.1846 16.998 25.5633C16.998 24.942 17.4986 24.4383 18.1161 24.4383C18.7336 24.4383 19.2342 24.942 19.2342 25.5633ZM23.3167 26.6883C23.9342 26.6883 24.4348 26.1846 24.4348 25.5633C24.4348 24.942 23.9342 24.4383 23.3167 24.4383C22.6992 24.4383 22.1986 24.942 22.1986 25.5633C22.1986 26.1846 22.6992 26.6883 23.3167 26.6883Z"/>
</mask>
<path fill-rule="evenodd" clip-rule="evenodd" d="M14.0862 15.1103C14.2815 14.745 14.7359 14.6071 15.1012 14.8023L17.3148 15.9852C17.5251 16.0976 17.6694 16.3032 17.7036 16.5392L17.9189 18.0259H25.254C25.4914 18.0259 25.7148 18.1383 25.8563 18.3289C25.9978 18.5196 26.0406 18.7659 25.9719 18.9931L24.6834 23.2516C24.5876 23.568 24.2961 23.7844 23.9655 23.7844H17.8864C17.5137 23.7844 17.1975 23.5107 17.1441 23.1419L16.5274 18.8834L16.2734 17.1295L14.3942 16.1253C14.0289 15.9301 13.891 15.4756 14.0862 15.1103ZM18.1361 19.5259L18.5356 22.2844H23.4089L24.2435 19.5259H18.1361ZM19.2342 25.5633C19.2342 26.1846 18.7336 26.6883 18.1161 26.6883C17.4986 26.6883 16.998 26.1846 16.998 25.5633C16.998 24.942 17.4986 24.4383 18.1161 24.4383C18.7336 24.4383 19.2342 24.942 19.2342 25.5633ZM23.3167 26.6883C23.9342 26.6883 24.4348 26.1846 24.4348 25.5633C24.4348 24.942 23.9342 24.4383 23.3167 24.4383C22.6992 24.4383 22.1986 24.942 22.1986 25.5633C22.1986 26.1846 22.6992 26.6883 23.3167 26.6883Z" fill="white"/>
<path d="M15.1012 14.8023L14.7499 15.4598L15.1012 14.8023ZM14.0862 15.1103L13.4288 14.759V14.759L14.0862 15.1103ZM17.3148 15.9852L17.6661 15.3278L17.6661 15.3278L17.3148 15.9852ZM17.7036 16.5392L16.9658 16.646L16.9658 16.646L17.7036 16.5392ZM17.9189 18.0259L17.1811 18.1328L17.2736 18.7713H17.9189V18.0259ZM25.8563 18.3289L25.2577 18.7732V18.7732L25.8563 18.3289ZM25.9719 18.9931L25.2584 18.7773V18.7773L25.9719 18.9931ZM24.6834 23.2516L25.3969 23.4675V23.4675L24.6834 23.2516ZM17.1441 23.1419L17.8819 23.035L17.1441 23.1419ZM16.5274 18.8834L15.7897 18.9903L16.5274 18.8834ZM16.2734 17.1295L17.0111 17.0226L16.9571 16.6497L16.6247 16.472L16.2734 17.1295ZM14.3942 16.1253L14.0429 16.7827H14.0429L14.3942 16.1253ZM18.5356 22.2844L17.7979 22.3912L17.8904 23.0298H18.5356V22.2844ZM18.1361 19.5259V18.7805H17.275L17.3984 19.6328L18.1361 19.5259ZM23.4089 22.2844V23.0298H23.9621L24.1223 22.5003L23.4089 22.2844ZM24.2435 19.5259L24.957 19.7418L25.2479 18.7805H24.2435V19.5259ZM15.4525 14.1449C14.7241 13.7556 13.818 14.0306 13.4288 14.759L14.7437 15.4616C14.7446 15.4599 14.7449 15.46 14.7444 15.4603C14.7444 15.4603 14.7446 15.4602 14.7449 15.46C14.7453 15.4598 14.7458 15.4596 14.7464 15.4594C14.747 15.4592 14.7475 15.4591 14.7479 15.4591C14.7483 15.4591 14.7485 15.4591 14.7485 15.4591C14.7479 15.459 14.7481 15.4588 14.7499 15.4598L15.4525 14.1449ZM17.6661 15.3278L15.4525 14.1449L14.7499 15.4598L16.9635 16.6427L17.6661 15.3278ZM18.4413 16.4324C18.3731 15.9619 18.0854 15.5518 17.6661 15.3278L16.9635 16.6427C16.9647 16.6433 16.9656 16.6446 16.9658 16.646L18.4413 16.4324ZM18.6566 17.9191L18.4413 16.4324L16.9658 16.646L17.1811 18.1328L18.6566 17.9191ZM25.254 17.2805H17.9189V18.7713H25.254V17.2805ZM26.4548 17.8847C26.1728 17.5046 25.7274 17.2805 25.254 17.2805V18.7713C25.2555 18.7713 25.2568 18.772 25.2577 18.7732L26.4548 17.8847ZM26.6854 19.209C26.8224 18.756 26.7369 18.2648 26.4548 17.8847L25.2577 18.7732C25.2586 18.7744 25.2588 18.7759 25.2584 18.7773L26.6854 19.209ZM25.3969 23.4675L26.6854 19.209L25.2584 18.7773L23.9699 23.0357L25.3969 23.4675ZM23.9655 24.5298C24.6246 24.5298 25.206 24.0983 25.3969 23.4675L23.9699 23.0357C23.9693 23.0376 23.9675 23.039 23.9655 23.039V24.5298ZM17.8864 24.5298H23.9655V23.039H17.8864V24.5298ZM16.4064 23.2487C16.5129 23.9841 17.1433 24.5298 17.8864 24.5298V23.039C17.8855 23.039 17.8851 23.0389 17.8851 23.0389C17.885 23.0389 17.885 23.0388 17.8849 23.0388C17.8847 23.0388 17.8841 23.0385 17.8834 23.0378C17.8826 23.0372 17.8823 23.0366 17.8822 23.0365C17.8822 23.0364 17.8821 23.0364 17.8821 23.0363C17.8821 23.0363 17.882 23.0359 17.8819 23.035L16.4064 23.2487ZM15.7897 18.9903L16.4064 23.2487L17.8819 23.035L17.2651 18.7766L15.7897 18.9903ZM15.5357 17.2363L15.7897 18.9903L17.2651 18.7766L17.0111 17.0226L15.5357 17.2363ZM14.0429 16.7827L15.9221 17.7869L16.6247 16.472L14.7455 15.4678L14.0429 16.7827ZM13.4288 14.759C13.0395 15.4874 13.3145 16.3935 14.0429 16.7827L14.7455 15.4678C14.7438 15.4669 14.7439 15.4666 14.7442 15.4671C14.7442 15.4671 14.7441 15.4669 14.7439 15.4666C14.7437 15.4662 14.7435 15.4657 14.7433 15.4651C14.7431 15.4645 14.743 15.464 14.743 15.4636C14.743 15.4632 14.743 15.463 14.743 15.463C14.7429 15.4636 14.7427 15.4634 14.7437 15.4616L13.4288 14.759ZM19.2733 22.1775L18.8738 19.4191L17.3984 19.6328L17.7979 22.3912L19.2733 22.1775ZM23.4089 21.539H18.5356V23.0298H23.4089V21.539ZM23.53 19.31L22.6954 22.0685L24.1223 22.5003L24.957 19.7418L23.53 19.31ZM18.1361 20.2713H24.2435V18.7805H18.1361V20.2713ZM18.1161 27.4337C19.1496 27.4337 19.9796 26.592 19.9796 25.5633H18.4888C18.4888 25.7773 18.3176 25.9429 18.1161 25.9429V27.4337ZM16.2526 25.5633C16.2526 26.592 17.0826 27.4337 18.1161 27.4337V25.9429C17.9146 25.9429 17.7434 25.7773 17.7434 25.5633H16.2526ZM18.1161 23.6929C17.0826 23.6929 16.2526 24.5346 16.2526 25.5633H17.7434C17.7434 25.3494 17.9146 25.1837 18.1161 25.1837V23.6929ZM19.9796 25.5633C19.9796 24.5346 19.1496 23.6929 18.1161 23.6929V25.1837C18.3176 25.1837 18.4888 25.3494 18.4888 25.5633H19.9796ZM23.6894 25.5633C23.6894 25.7773 23.5182 25.9429 23.3167 25.9429V27.4337C24.3502 27.4337 25.1802 26.592 25.1802 25.5633H23.6894ZM23.3167 25.1837C23.5182 25.1837 23.6894 25.3494 23.6894 25.5633H25.1802C25.1802 24.5346 24.3502 23.6929 23.3167 23.6929V25.1837ZM22.944 25.5633C22.944 25.3494 23.1152 25.1837 23.3167 25.1837V23.6929C22.2832 23.6929 21.4531 24.5346 21.4531 25.5633H22.944ZM23.3167 25.9429C23.1152 25.9429 22.944 25.7773 22.944 25.5633H21.4531C21.4531 26.592 22.2832 27.4337 23.3167 27.4337V25.9429Z" fill="white" mask="url(#path-2-inside-1_1_560)"/>
</g>
<defs>
<clipPath id="clip0_1_560">
<rect width="12" height="12" fill="white" transform="translate(14 14.8594)"/>
</clipPath>
</defs>
</svg>
