<svg width="83" height="31" viewBox="0 0 83 31" fill="none" xmlns="http://www.w3.org/2000/svg">
<rect x="0.695312" width="82.0859" height="30.8594" rx="12.3438" fill="#0B1D33"/>
<g clip-path="url(#clip0_1_636)">
<path fill-rule="evenodd" clip-rule="evenodd" d="M13.4042 12.6701C14.6083 13.8763 14.6083 15.832 13.4042 17.0382C12.2002 18.2444 10.248 18.2444 9.04398 17.0382C7.83992 15.832 7.83992 13.8763 9.04398 12.6701C10.248 11.4639 12.2002 11.4639 13.4042 12.6701ZM14.6859 17.4381C15.9486 15.7446 15.8121 13.3351 14.2763 11.7965C12.5906 10.1078 9.8576 10.1078 8.17192 11.7965C6.48625 13.4852 6.48625 16.2231 8.17192 17.9118C9.71136 19.454 12.1243 19.5878 13.8153 18.3132L15.6885 20.1864C15.9295 20.4274 16.3203 20.4274 16.5613 20.1864C16.8023 19.9453 16.8023 19.5546 16.5613 19.3135L14.6859 17.4381Z" fill="white"/>
</g>
<defs>
<clipPath id="clip0_1_636">
<rect width="9.875" height="9.875" fill="white" transform="translate(6.86792 10.4919)"/>
</clipPath>
</defs>
</svg>
