<svg width="20" height="20" viewBox="0 0 20 20" fill="none" xmlns="http://www.w3.org/2000/svg">
<g clip-path="url(#clip0_401_272)">
<path d="M4.41037 12.0868L3.71766 14.6857L1.18583 14.7395C0.429182 13.3291 0 11.7154 0 10.0005C0 8.34227 0.401275 6.77852 1.11256 5.40161H1.11311L3.36715 5.81692L4.35456 8.06864C4.14789 8.67415 4.03525 9.32414 4.03525 10.0005C4.03533 10.7346 4.16764 11.4379 4.41037 12.0868Z" fill="#FBBB00"/>
<path d="M19.7266 8.13257C19.8409 8.73749 19.9005 9.36221 19.9005 10.0007C19.9005 10.7166 19.8256 11.415 19.6829 12.0886C19.1985 14.3809 17.9328 16.3825 16.1795 17.799L16.179 17.7985L13.3399 17.6529L12.9381 15.132C14.1015 14.4463 15.0107 13.3732 15.4896 12.0886H10.1689V8.13257H15.5672H19.7266Z" fill="#518EF8"/>
<path d="M16.1792 17.7989L16.1797 17.7995C14.4746 19.1769 12.3084 20.0011 9.95046 20.0011C6.16116 20.0011 2.86666 17.8726 1.18604 14.7401L4.41058 12.0874C5.25087 14.3412 7.41423 15.9456 9.95046 15.9456C11.0406 15.9456 12.0619 15.6495 12.9383 15.1324L16.1792 17.7989Z" fill="#28B446"/>
<path d="M16.3017 2.30219L13.0782 4.95438C12.1713 4.38461 11.0991 4.05547 9.95048 4.05547C7.35685 4.05547 5.15302 5.73348 4.35483 8.06813L1.11334 5.40109H1.11279C2.76881 2.19231 6.10486 0 9.95048 0C12.3648 0 14.5784 0.864297 16.3017 2.30219Z" fill="#F14336"/>
</g>
<defs>
<clipPath id="clip0_401_272">
<rect width="20" height="20" fill="white"/>
</clipPath>
</defs>
</svg>
