<svg width="14" height="14" viewBox="0 0 14 14" fill="none" xmlns="http://www.w3.org/2000/svg">
<g clip-path="url(#clip0_1_551)">
<path fill-rule="evenodd" clip-rule="evenodd" d="M2.17233 3.9837C3.00388 3.9837 3.67798 3.3096 3.67798 2.47806C3.67798 1.64651 3.00388 0.972412 2.17233 0.972412C1.34079 0.972412 0.666687 1.64651 0.666687 2.47806C0.666687 3.3096 1.34079 3.9837 2.17233 3.9837ZM5.18362 2.47806C5.18362 2.06229 5.52067 1.72524 5.93644 1.72524H11.959C12.3748 1.72524 12.7118 2.06229 12.7118 2.47806C12.7118 2.89383 12.3748 3.23088 11.959 3.23088H5.93644C5.52067 3.23088 5.18362 2.89383 5.18362 2.47806ZM2.17233 8.50064C3.00388 8.50064 3.67798 7.82654 3.67798 6.995C3.67798 6.16345 3.00388 5.48935 2.17233 5.48935C1.34079 5.48935 0.666687 6.16345 0.666687 6.995C0.666687 7.82654 1.34079 8.50064 2.17233 8.50064ZM5.18362 6.99499C5.18362 6.57922 5.52067 6.24217 5.93644 6.24217H11.959C12.3748 6.24217 12.7118 6.57922 12.7118 6.99499C12.7118 7.41076 12.3748 7.74782 11.959 7.74782H5.93644C5.52067 7.74782 5.18362 7.41076 5.18362 6.99499ZM2.17233 13.0176C3.00388 13.0176 3.67798 12.3435 3.67798 11.5119C3.67798 10.6804 3.00388 10.0063 2.17233 10.0063C1.34079 10.0063 0.666687 10.6804 0.666687 11.5119C0.666687 12.3435 1.34079 13.0176 2.17233 13.0176ZM5.93644 10.7591C5.52067 10.7591 5.18362 11.0962 5.18362 11.5119C5.18362 11.9277 5.52067 12.2648 5.93644 12.2648H11.959C12.3748 12.2648 12.7118 11.9277 12.7118 11.5119C12.7118 11.0962 12.3748 10.7591 11.959 10.7591H5.93644Z" fill="white"/>
</g>
<defs>
<clipPath id="clip0_1_551">
<rect width="13" height="13" fill="white" transform="translate(0.166687 0.359375)"/>
</clipPath>
</defs>
</svg>
