<svg width="14" height="14" viewBox="0 0 14 14" fill="none" xmlns="http://www.w3.org/2000/svg">
<g clip-path="url(#clip0_1_671)">
<mask id="path-1-inside-1_1_671" fill="white">
<path fill-rule="evenodd" clip-rule="evenodd" d="M0.370403 0.833356C0.589262 0.423799 1.09869 0.269208 1.50825 0.488067L3.98987 1.81419C4.22561 1.94017 4.38741 2.17072 4.42572 2.43525L4.6671 4.10198H12.8904C13.1565 4.10198 13.407 4.22798 13.5656 4.44169C13.7242 4.65539 13.7723 4.93157 13.6952 5.1863L12.2507 9.96036C12.1433 10.3151 11.8165 10.5577 11.4459 10.5577H4.63069C4.21287 10.5577 3.85844 10.2509 3.79856 9.83737L3.10716 5.06331L2.82239 3.09698L0.715692 1.9712C0.306135 1.75235 0.151544 1.24291 0.370403 0.833356ZM4.91064 5.78361L5.3585 8.87604H10.8218L11.7575 5.78361H4.91064ZM6.14172 12.5523C6.14172 13.2489 5.58051 13.8135 4.88822 13.8135C4.19592 13.8135 3.63471 13.2489 3.63471 12.5523C3.63471 11.8558 4.19592 11.2911 4.88822 11.2911C5.58051 11.2911 6.14172 11.8558 6.14172 12.5523ZM10.7185 13.8135C11.4108 13.8135 11.972 13.2489 11.972 12.5523C11.972 11.8558 11.4108 11.2911 10.7185 11.2911C10.0262 11.2911 9.46499 11.8558 9.46499 12.5523C9.46499 13.2489 10.0262 13.8135 10.7185 13.8135Z"/>
</mask>
<path fill-rule="evenodd" clip-rule="evenodd" d="M0.370403 0.833356C0.589262 0.423799 1.09869 0.269208 1.50825 0.488067L3.98987 1.81419C4.22561 1.94017 4.38741 2.17072 4.42572 2.43525L4.6671 4.10198H12.8904C13.1565 4.10198 13.407 4.22798 13.5656 4.44169C13.7242 4.65539 13.7723 4.93157 13.6952 5.1863L12.2507 9.96036C12.1433 10.3151 11.8165 10.5577 11.4459 10.5577H4.63069C4.21287 10.5577 3.85844 10.2509 3.79856 9.83737L3.10716 5.06331L2.82239 3.09698L0.715692 1.9712C0.306135 1.75235 0.151544 1.24291 0.370403 0.833356ZM4.91064 5.78361L5.3585 8.87604H10.8218L11.7575 5.78361H4.91064ZM6.14172 12.5523C6.14172 13.2489 5.58051 13.8135 4.88822 13.8135C4.19592 13.8135 3.63471 13.2489 3.63471 12.5523C3.63471 11.8558 4.19592 11.2911 4.88822 11.2911C5.58051 11.2911 6.14172 11.8558 6.14172 12.5523ZM10.7185 13.8135C11.4108 13.8135 11.972 13.2489 11.972 12.5523C11.972 11.8558 11.4108 11.2911 10.7185 11.2911C10.0262 11.2911 9.46499 11.8558 9.46499 12.5523C9.46499 13.2489 10.0262 13.8135 10.7185 13.8135Z" fill="white"/>
<path d="M1.50825 0.488067L1.11197 1.22964L1.50825 0.488067ZM0.370403 0.833356L1.11197 1.22964L1.11197 1.22964L0.370403 0.833356ZM3.98987 1.81419L4.38615 1.07263V1.07263L3.98987 1.81419ZM4.42572 2.43525L5.25785 2.31474V2.31474L4.42572 2.43525ZM4.6671 4.10198L3.83497 4.2225L3.93929 4.9428H4.6671V4.10198ZM13.5656 4.44169L14.2407 3.94058L14.2407 3.94058L13.5656 4.44169ZM13.6952 5.1863L14.5 5.42981V5.42981L13.6952 5.1863ZM12.2507 9.96036L11.4459 9.71685V9.71686L12.2507 9.96036ZM3.79856 9.83737L4.63069 9.71686L3.79856 9.83737ZM3.10716 5.06331L2.27503 5.18382V5.18382L3.10716 5.06331ZM2.82239 3.09698L3.65452 2.97647L3.59359 2.55576L3.21867 2.35541L2.82239 3.09698ZM0.715692 1.9712L0.319412 2.71277H0.319412L0.715692 1.9712ZM5.3585 8.87604L4.52637 8.99656L4.63069 9.71686H5.3585V8.87604ZM4.91064 5.78361V4.9428H3.93929L4.07851 5.90412L4.91064 5.78361ZM10.8218 8.87604V9.71686H11.4459L11.6266 9.11955L10.8218 8.87604ZM11.7575 5.78361L12.5623 6.02711L12.8904 4.9428H11.7575V5.78361ZM1.90453 -0.253501C1.08542 -0.69122 0.066553 -0.382038 -0.371166 0.437076L1.11197 1.22964V1.22964L1.90453 -0.253501ZM4.38615 1.07263L1.90453 -0.253501L1.11197 1.22964L3.59359 2.55576L4.38615 1.07263ZM5.25785 2.31474C5.18123 1.78568 4.85763 1.32457 4.38615 1.07263L3.59359 2.55576L3.59359 2.55576L5.25785 2.31474ZM5.49923 3.98147L5.25785 2.31474L3.59359 2.55576L3.83497 4.2225L5.49923 3.98147ZM12.8904 3.26117H4.6671V4.9428H12.8904V3.26117ZM14.2407 3.94058C13.9235 3.51317 13.4227 3.26117 12.8904 3.26117V4.9428L12.8904 4.9428L14.2407 3.94058ZM14.5 5.42981C14.6541 4.92035 14.558 4.36799 14.2407 3.94058L12.8904 4.9428V4.9428L14.5 5.42981ZM13.0554 10.2039L14.5 5.42981L12.8904 4.9428L11.4459 9.71685L13.0554 10.2039ZM11.4459 11.3985C12.187 11.3985 12.8408 10.9133 13.0554 10.2039L11.4459 9.71686L11.4459 9.71685V11.3985ZM4.63069 11.3985H11.4459V9.71685H4.63069V11.3985ZM2.96643 9.95788C3.0862 10.7849 3.79506 11.3985 4.63069 11.3985V9.71685L4.63069 9.71686L2.96643 9.95788ZM2.27503 5.18382L2.96643 9.95788L4.63069 9.71686L3.93929 4.9428L2.27503 5.18382ZM1.99026 3.21749L2.27503 5.18382L3.93929 4.9428L3.65452 2.97647L1.99026 3.21749ZM0.319412 2.71277L2.42611 3.83855L3.21867 2.35541L1.11197 1.22964L0.319412 2.71277ZM-0.371166 0.437076C-0.808885 1.25619 -0.499702 2.27506 0.319412 2.71277L1.11197 1.22964L1.11197 1.22964L-0.371166 0.437076ZM6.19063 8.75553L5.74277 5.66309L4.07851 5.90412L4.52637 8.99656L6.19063 8.75553ZM10.8218 8.03523H5.3585V9.71686H10.8218V8.03523ZM10.9528 5.5401L10.0171 8.63254L11.6266 9.11955L12.5623 6.02711L10.9528 5.5401ZM4.91064 6.62442H11.7575V4.9428H4.91064V6.62442ZM4.88822 14.6544C6.04973 14.6544 6.98253 13.7084 6.98253 12.5523H5.30091C5.30091 12.7894 5.11129 12.9727 4.88822 12.9727V14.6544ZM2.7939 12.5523C2.7939 13.7084 3.7267 14.6544 4.88822 14.6544V12.9727C4.66514 12.9727 4.47552 12.7894 4.47552 12.5523H2.7939ZM4.88822 10.4503C3.7267 10.4503 2.7939 11.3963 2.7939 12.5523H4.47552C4.47552 12.3153 4.66514 12.1319 4.88822 12.1319V10.4503ZM6.98253 12.5523C6.98253 11.3963 6.04973 10.4503 4.88822 10.4503V12.1319C5.11129 12.1319 5.30091 12.3153 5.30091 12.5523H6.98253ZM11.1312 12.5523C11.1312 12.7894 10.9416 12.9727 10.7185 12.9727V14.6544C11.88 14.6544 12.8128 13.7084 12.8128 12.5523H11.1312ZM10.7185 12.1319C10.9416 12.1319 11.1312 12.3153 11.1312 12.5523H12.8128C12.8128 11.3963 11.88 10.4503 10.7185 10.4503V12.1319ZM10.3058 12.5523C10.3058 12.3153 10.4954 12.1319 10.7185 12.1319V10.4503C9.55699 10.4503 8.62418 11.3963 8.62418 12.5523H10.3058ZM10.7185 12.9727C10.4954 12.9727 10.3058 12.7894 10.3058 12.5523H8.62418C8.62418 13.7084 9.55699 14.6544 10.7185 14.6544V12.9727Z" fill="white" mask="url(#path-1-inside-1_1_671)"/>
</g>
<defs>
<clipPath id="clip0_1_671">
<rect width="13.453" height="13.453" fill="white" transform="translate(0.27356 0.36068)"/>
</clipPath>
</defs>
</svg>
