<svg width="15" height="14" viewBox="0 0 15 14" fill="none" xmlns="http://www.w3.org/2000/svg">
<g clip-path="url(#clip0_1_738)">
<mask id="path-1-inside-1_1_738" fill="white">
<path fill-rule="evenodd" clip-rule="evenodd" d="M0.979412 0.82171C1.19827 0.412153 1.7077 0.257562 2.11726 0.476421L4.59888 1.80255C4.83462 1.92852 4.99642 2.15908 5.03473 2.42361L5.27611 4.09034H13.4994C13.7656 4.09034 14.016 4.21634 14.1746 4.43004C14.3332 4.64375 14.3813 4.91993 14.3042 5.17466L12.8597 9.94872C12.7523 10.3034 12.4255 10.546 12.0549 10.546H5.23969C4.82188 10.546 4.46745 10.2392 4.40757 9.82572L3.71617 5.05166L3.4314 3.08534L1.3247 1.95956C0.915144 1.7407 0.760552 1.23127 0.979412 0.82171ZM5.51965 5.77196L5.96751 8.8644H11.4308L12.3665 5.77196H5.51965ZM6.75073 12.5409C6.75073 13.2375 6.18952 13.8022 5.49722 13.8022C4.80493 13.8022 4.24372 13.2375 4.24372 12.5409C4.24372 11.8444 4.80493 11.2797 5.49722 11.2797C6.18952 11.2797 6.75073 11.8444 6.75073 12.5409ZM11.3275 13.8022C12.0198 13.8022 12.581 13.2375 12.581 12.5409C12.581 11.8444 12.0198 11.2797 11.3275 11.2797C10.6352 11.2797 10.074 11.8444 10.074 12.5409C10.074 13.2375 10.6352 13.8022 11.3275 13.8022Z"/>
</mask>
<path fill-rule="evenodd" clip-rule="evenodd" d="M0.979412 0.82171C1.19827 0.412153 1.7077 0.257562 2.11726 0.476421L4.59888 1.80255C4.83462 1.92852 4.99642 2.15908 5.03473 2.42361L5.27611 4.09034H13.4994C13.7656 4.09034 14.016 4.21634 14.1746 4.43004C14.3332 4.64375 14.3813 4.91993 14.3042 5.17466L12.8597 9.94872C12.7523 10.3034 12.4255 10.546 12.0549 10.546H5.23969C4.82188 10.546 4.46745 10.2392 4.40757 9.82572L3.71617 5.05166L3.4314 3.08534L1.3247 1.95956C0.915144 1.7407 0.760552 1.23127 0.979412 0.82171ZM5.51965 5.77196L5.96751 8.8644H11.4308L12.3665 5.77196H5.51965ZM6.75073 12.5409C6.75073 13.2375 6.18952 13.8022 5.49722 13.8022C4.80493 13.8022 4.24372 13.2375 4.24372 12.5409C4.24372 11.8444 4.80493 11.2797 5.49722 11.2797C6.18952 11.2797 6.75073 11.8444 6.75073 12.5409ZM11.3275 13.8022C12.0198 13.8022 12.581 13.2375 12.581 12.5409C12.581 11.8444 12.0198 11.2797 11.3275 11.2797C10.6352 11.2797 10.074 11.8444 10.074 12.5409C10.074 13.2375 10.6352 13.8022 11.3275 13.8022Z" fill="#21D695"/>
<path d="M2.11726 0.476421L1.72098 1.21799L1.72098 1.21799L2.11726 0.476421ZM0.979412 0.82171L1.72098 1.21799L1.72098 1.21799L0.979412 0.82171ZM4.59888 1.80255L4.99516 1.06098V1.06098L4.59888 1.80255ZM5.03473 2.42361L5.86686 2.30309V2.30309L5.03473 2.42361ZM5.27611 4.09034L4.44398 4.21085L4.5483 4.93115H5.27611V4.09034ZM14.1746 4.43004L14.8498 3.92893L14.8498 3.92893L14.1746 4.43004ZM14.3042 5.17466L15.109 5.41816V5.41816L14.3042 5.17466ZM12.8597 9.94872L12.0549 9.70521V9.70521L12.8597 9.94872ZM4.40757 9.82572L3.57544 9.94623L4.40757 9.82572ZM3.71617 5.05166L4.5483 4.93115L3.71617 5.05166ZM3.4314 3.08534L4.26353 2.96482L4.2026 2.54412L3.82768 2.34377L3.4314 3.08534ZM1.3247 1.95956L0.928421 2.70113H0.928421L1.3247 1.95956ZM5.96751 8.8644L5.13538 8.98491L5.23969 9.70521H5.96751V8.8644ZM5.51965 5.77196V4.93115H4.5483L4.68752 5.89247L5.51965 5.77196ZM11.4308 8.8644V9.70521H12.0549L12.2356 9.10791L11.4308 8.8644ZM12.3665 5.77196L13.1713 6.01547L13.4994 4.93115H12.3665V5.77196ZM2.51354 -0.265148C1.69443 -0.702867 0.675562 -0.393684 0.237843 0.42543L1.72098 1.21799H1.72098L2.51354 -0.265148ZM4.99516 1.06098L2.51354 -0.265148L1.72098 1.21799L4.2026 2.54412L4.99516 1.06098ZM5.86686 2.30309C5.79024 1.77404 5.46663 1.31293 4.99516 1.06098L4.2026 2.54412L4.2026 2.54412L5.86686 2.30309ZM6.10824 3.96983L5.86686 2.30309L4.2026 2.54412L4.44398 4.21085L6.10824 3.96983ZM13.4994 3.24953H5.27611V4.93115H13.4994V3.24953ZM14.8498 3.92893C14.5325 3.50152 14.0317 3.24953 13.4994 3.24953V4.93115L13.4994 4.93115L14.8498 3.92893ZM15.109 5.41816C15.2631 4.90871 15.167 4.35635 14.8498 3.92893L13.4994 4.93115L13.4994 4.93115L15.109 5.41816ZM13.6644 10.1922L15.109 5.41816L13.4994 4.93115L12.0549 9.70521L13.6644 10.1922ZM12.0549 11.3868C12.796 11.3868 13.4498 10.9016 13.6644 10.1922L12.0549 9.70521L12.0549 9.70521V11.3868ZM5.23969 11.3868H12.0549V9.70521H5.23969V11.3868ZM3.57544 9.94623C3.69521 10.7732 4.40407 11.3868 5.23969 11.3868V9.70521L5.23969 9.70521L3.57544 9.94623ZM2.88404 5.17217L3.57544 9.94623L5.23969 9.70521L4.5483 4.93115L2.88404 5.17217ZM2.59927 3.20585L2.88404 5.17217L4.5483 4.93115L4.26353 2.96482L2.59927 3.20585ZM0.928421 2.70113L3.03512 3.8269L3.82768 2.34377L1.72098 1.21799L0.928421 2.70113ZM0.237843 0.42543C-0.199876 1.24454 0.109306 2.26341 0.928421 2.70113L1.72098 1.21799L1.72098 1.21799L0.237843 0.42543ZM6.79964 8.74389L6.35178 5.65145L4.68752 5.89247L5.13538 8.98491L6.79964 8.74389ZM11.4308 8.02359H5.96751V9.70521H11.4308V8.02359ZM11.5618 5.52845L10.6261 8.62089L12.2356 9.10791L13.1713 6.01547L11.5618 5.52845ZM5.51965 6.61277H12.3665V4.93115H5.51965V6.61277ZM5.49722 14.643C6.65874 14.643 7.59154 13.697 7.59154 12.5409H5.90992C5.90992 12.778 5.7203 12.9613 5.49722 12.9613V14.643ZM3.40291 12.5409C3.40291 13.697 4.33571 14.643 5.49722 14.643V12.9613C5.27415 12.9613 5.08453 12.778 5.08453 12.5409H3.40291ZM5.49722 10.4389C4.33571 10.4389 3.40291 11.3849 3.40291 12.5409H5.08453C5.08453 12.3039 5.27415 12.1205 5.49722 12.1205V10.4389ZM7.59154 12.5409C7.59154 11.3849 6.65874 10.4389 5.49722 10.4389V12.1205C5.7203 12.1205 5.90992 12.3039 5.90992 12.5409H7.59154ZM11.7402 12.5409C11.7402 12.778 11.5506 12.9613 11.3275 12.9613V14.643C12.489 14.643 13.4218 13.697 13.4218 12.5409H11.7402ZM11.3275 12.1205C11.5506 12.1205 11.7402 12.3039 11.7402 12.5409H13.4218C13.4218 11.3849 12.489 10.4389 11.3275 10.4389V12.1205ZM10.9148 12.5409C10.9148 12.3039 11.1044 12.1205 11.3275 12.1205V10.4389C10.166 10.4389 9.23319 11.3849 9.23319 12.5409H10.9148ZM11.3275 12.9613C11.1044 12.9613 10.9148 12.778 10.9148 12.5409H9.23319C9.23319 13.697 10.166 14.643 11.3275 14.643V12.9613Z" fill="#21D695" mask="url(#path-1-inside-1_1_738)"/>
</g>
<defs>
<clipPath id="clip0_1_738">
<rect width="13.453" height="13.453" fill="white" transform="translate(0.883057 0.348495)"/>
</clipPath>
</defs>
</svg>
