<svg width="14" height="14" viewBox="0 0 14 14" fill="none" xmlns="http://www.w3.org/2000/svg">
<g clip-path="url(#clip0_1_431)">
<mask id="path-1-inside-1_1_431" fill="white">
<path fill-rule="evenodd" clip-rule="evenodd" d="M0.370281 0.833356C0.58914 0.423799 1.09857 0.269208 1.50813 0.488067L3.98975 1.81419C4.22549 1.94017 4.38729 2.17072 4.4256 2.43525L4.66698 4.10198H12.8903C13.1564 4.10198 13.4068 4.22798 13.5655 4.44169C13.7241 4.65539 13.7721 4.93157 13.6951 5.1863L12.2505 9.96036C12.1432 10.3151 11.8163 10.5577 11.4458 10.5577H4.63056C4.21275 10.5577 3.85832 10.2509 3.79843 9.83737L3.10704 5.06331L2.82227 3.09698L0.71557 1.9712C0.306013 1.75235 0.151422 1.24291 0.370281 0.833356ZM4.91052 5.78361L5.35838 8.87604H10.8217L11.7574 5.78361H4.91052ZM6.1416 12.5523C6.1416 13.2489 5.58039 13.8135 4.88809 13.8135C4.1958 13.8135 3.63459 13.2489 3.63459 12.5523C3.63459 11.8558 4.1958 11.2911 4.88809 11.2911C5.58039 11.2911 6.1416 11.8558 6.1416 12.5523ZM10.7184 13.8135C11.4107 13.8135 11.9719 13.2489 11.9719 12.5523C11.9719 11.8558 11.4107 11.2911 10.7184 11.2911C10.0261 11.2911 9.46487 11.8558 9.46487 12.5523C9.46487 13.2489 10.0261 13.8135 10.7184 13.8135Z"/>
</mask>
<path fill-rule="evenodd" clip-rule="evenodd" d="M0.370281 0.833356C0.58914 0.423799 1.09857 0.269208 1.50813 0.488067L3.98975 1.81419C4.22549 1.94017 4.38729 2.17072 4.4256 2.43525L4.66698 4.10198H12.8903C13.1564 4.10198 13.4068 4.22798 13.5655 4.44169C13.7241 4.65539 13.7721 4.93157 13.6951 5.1863L12.2505 9.96036C12.1432 10.3151 11.8163 10.5577 11.4458 10.5577H4.63056C4.21275 10.5577 3.85832 10.2509 3.79843 9.83737L3.10704 5.06331L2.82227 3.09698L0.71557 1.9712C0.306013 1.75235 0.151422 1.24291 0.370281 0.833356ZM4.91052 5.78361L5.35838 8.87604H10.8217L11.7574 5.78361H4.91052ZM6.1416 12.5523C6.1416 13.2489 5.58039 13.8135 4.88809 13.8135C4.1958 13.8135 3.63459 13.2489 3.63459 12.5523C3.63459 11.8558 4.1958 11.2911 4.88809 11.2911C5.58039 11.2911 6.1416 11.8558 6.1416 12.5523ZM10.7184 13.8135C11.4107 13.8135 11.9719 13.2489 11.9719 12.5523C11.9719 11.8558 11.4107 11.2911 10.7184 11.2911C10.0261 11.2911 9.46487 11.8558 9.46487 12.5523C9.46487 13.2489 10.0261 13.8135 10.7184 13.8135Z" fill="white"/>
<path d="M1.50813 0.488067L1.11185 1.22964L1.50813 0.488067ZM0.370281 0.833356L1.11185 1.22964L1.11185 1.22964L0.370281 0.833356ZM3.98975 1.81419L4.38603 1.07263V1.07263L3.98975 1.81419ZM4.4256 2.43525L5.25772 2.31474V2.31474L4.4256 2.43525ZM4.66698 4.10198L3.83485 4.2225L3.93917 4.9428H4.66698V4.10198ZM13.5655 4.44169L14.2406 3.94058L14.2406 3.94058L13.5655 4.44169ZM13.6951 5.1863L14.4998 5.42981V5.42981L13.6951 5.1863ZM12.2505 9.96036L11.4458 9.71685V9.71686L12.2505 9.96036ZM3.79843 9.83737L4.63056 9.71686L3.79843 9.83737ZM3.10704 5.06331L2.27491 5.18382V5.18382L3.10704 5.06331ZM2.82227 3.09698L3.65439 2.97647L3.59347 2.55576L3.21855 2.35541L2.82227 3.09698ZM0.71557 1.9712L0.31929 2.71277H0.31929L0.71557 1.9712ZM5.35838 8.87604L4.52625 8.99656L4.63056 9.71686H5.35838V8.87604ZM4.91052 5.78361V4.9428H3.93917L4.07839 5.90412L4.91052 5.78361ZM10.8217 8.87604V9.71686H11.4458L11.6265 9.11955L10.8217 8.87604ZM11.7574 5.78361L12.5622 6.02711L12.8903 4.9428H11.7574V5.78361ZM1.90441 -0.253501C1.0853 -0.69122 0.0664309 -0.382038 -0.371288 0.437076L1.11185 1.22964V1.22964L1.90441 -0.253501ZM4.38603 1.07263L1.90441 -0.253501L1.11185 1.22964L3.59347 2.55576L4.38603 1.07263ZM5.25772 2.31474C5.1811 1.78568 4.8575 1.32457 4.38603 1.07263L3.59347 2.55576L3.59347 2.55576L5.25772 2.31474ZM5.49911 3.98147L5.25772 2.31474L3.59347 2.55576L3.83485 4.2225L5.49911 3.98147ZM12.8903 3.26117H4.66698V4.9428H12.8903V3.26117ZM14.2406 3.94058C13.9234 3.51317 13.4226 3.26117 12.8903 3.26117V4.9428L12.8903 4.9428L14.2406 3.94058ZM14.4998 5.42981C14.654 4.92035 14.5578 4.36799 14.2406 3.94058L12.8903 4.9428V4.9428L14.4998 5.42981ZM13.0553 10.2039L14.4998 5.42981L12.8903 4.9428L11.4458 9.71685L13.0553 10.2039ZM11.4458 11.3985C12.1869 11.3985 12.8407 10.9133 13.0553 10.2039L11.4458 9.71686L11.4458 9.71685V11.3985ZM4.63056 11.3985H11.4458V9.71685H4.63056V11.3985ZM2.96631 9.95788C3.08607 10.7849 3.79494 11.3985 4.63056 11.3985V9.71685L4.63056 9.71686L2.96631 9.95788ZM2.27491 5.18382L2.96631 9.95788L4.63056 9.71686L3.93917 4.9428L2.27491 5.18382ZM1.99014 3.21749L2.27491 5.18382L3.93917 4.9428L3.65439 2.97647L1.99014 3.21749ZM0.31929 2.71277L2.42599 3.83855L3.21855 2.35541L1.11185 1.22964L0.31929 2.71277ZM-0.371288 0.437076C-0.809007 1.25619 -0.499824 2.27506 0.31929 2.71277L1.11185 1.22964L1.11185 1.22964L-0.371288 0.437076ZM6.19051 8.75553L5.74265 5.66309L4.07839 5.90412L4.52625 8.99656L6.19051 8.75553ZM10.8217 8.03523H5.35838V9.71686H10.8217V8.03523ZM10.9526 5.5401L10.0169 8.63254L11.6265 9.11955L12.5622 6.02711L10.9526 5.5401ZM4.91052 6.62442H11.7574V4.9428H4.91052V6.62442ZM4.88809 14.6544C6.0496 14.6544 6.98241 13.7084 6.98241 12.5523H5.30079C5.30079 12.7894 5.11117 12.9727 4.88809 12.9727V14.6544ZM2.79378 12.5523C2.79378 13.7084 3.72658 14.6544 4.88809 14.6544V12.9727C4.66502 12.9727 4.4754 12.7894 4.4754 12.5523H2.79378ZM4.88809 10.4503C3.72658 10.4503 2.79378 11.3963 2.79378 12.5523H4.4754C4.4754 12.3153 4.66502 12.1319 4.88809 12.1319V10.4503ZM6.98241 12.5523C6.98241 11.3963 6.04961 10.4503 4.88809 10.4503V12.1319C5.11117 12.1319 5.30079 12.3153 5.30079 12.5523H6.98241ZM11.1311 12.5523C11.1311 12.7894 10.9415 12.9727 10.7184 12.9727V14.6544C11.8799 14.6544 12.8127 13.7084 12.8127 12.5523H11.1311ZM10.7184 12.1319C10.9415 12.1319 11.1311 12.3153 11.1311 12.5523H12.8127C12.8127 11.3963 11.8799 10.4503 10.7184 10.4503V12.1319ZM10.3057 12.5523C10.3057 12.3153 10.4953 12.1319 10.7184 12.1319V10.4503C9.55687 10.4503 8.62406 11.3963 8.62406 12.5523H10.3057ZM10.7184 12.9727C10.4953 12.9727 10.3057 12.7894 10.3057 12.5523H8.62406C8.62406 13.7084 9.55687 14.6544 10.7184 14.6544V12.9727Z" fill="white" mask="url(#path-1-inside-1_1_431)"/>
</g>
<defs>
<clipPath id="clip0_1_431">
<rect width="13.453" height="13.453" fill="white" transform="translate(0.273499 0.36068)"/>
</clipPath>
</defs>
</svg>
