<svg width="14" height="14" viewBox="0 0 14 14" fill="none" xmlns="http://www.w3.org/2000/svg">
<g clip-path="url(#clip0_1_463)">
<mask id="path-1-inside-1_1_463" fill="white">
<path fill-rule="evenodd" clip-rule="evenodd" d="M0.215008 0.856881C0.433867 0.447324 0.943299 0.292733 1.35286 0.511593L3.83447 1.83772C4.07021 1.96369 4.23201 2.19425 4.27032 2.45878L4.5117 4.12551H12.735C13.0011 4.12551 13.2516 4.25151 13.4102 4.46521C13.5688 4.67892 13.6169 4.9551 13.5398 5.20983L12.0953 9.98389C11.9879 10.3386 11.6611 10.5812 11.2905 10.5812H4.47529C4.05748 10.5812 3.70305 10.2744 3.64316 9.86089L2.95176 5.08683L2.66699 3.12051L0.560296 1.99473C0.150739 1.77587 -0.00385186 1.26644 0.215008 0.856881ZM4.75524 5.80713L5.2031 8.89957H10.6664L11.6021 5.80713H4.75524ZM5.98633 12.5761C5.98633 13.2727 5.42511 13.8373 4.73282 13.8373C4.04053 13.8373 3.47931 13.2727 3.47931 12.5761C3.47931 11.8796 4.04053 11.3149 4.73282 11.3149C5.42511 11.3149 5.98633 11.8796 5.98633 12.5761ZM10.5631 13.8373C11.2554 13.8373 11.8166 13.2727 11.8166 12.5761C11.8166 11.8796 11.2554 11.3149 10.5631 11.3149C9.87081 11.3149 9.3096 11.8796 9.3096 12.5761C9.3096 13.2727 9.87081 13.8373 10.5631 13.8373Z"/>
</mask>
<path fill-rule="evenodd" clip-rule="evenodd" d="M0.215008 0.856881C0.433867 0.447324 0.943299 0.292733 1.35286 0.511593L3.83447 1.83772C4.07021 1.96369 4.23201 2.19425 4.27032 2.45878L4.5117 4.12551H12.735C13.0011 4.12551 13.2516 4.25151 13.4102 4.46521C13.5688 4.67892 13.6169 4.9551 13.5398 5.20983L12.0953 9.98389C11.9879 10.3386 11.6611 10.5812 11.2905 10.5812H4.47529C4.05748 10.5812 3.70305 10.2744 3.64316 9.86089L2.95176 5.08683L2.66699 3.12051L0.560296 1.99473C0.150739 1.77587 -0.00385186 1.26644 0.215008 0.856881ZM4.75524 5.80713L5.2031 8.89957H10.6664L11.6021 5.80713H4.75524ZM5.98633 12.5761C5.98633 13.2727 5.42511 13.8373 4.73282 13.8373C4.04053 13.8373 3.47931 13.2727 3.47931 12.5761C3.47931 11.8796 4.04053 11.3149 4.73282 11.3149C5.42511 11.3149 5.98633 11.8796 5.98633 12.5761ZM10.5631 13.8373C11.2554 13.8373 11.8166 13.2727 11.8166 12.5761C11.8166 11.8796 11.2554 11.3149 10.5631 11.3149C9.87081 11.3149 9.3096 11.8796 9.3096 12.5761C9.3096 13.2727 9.87081 13.8373 10.5631 13.8373Z" fill="#21D695"/>
<path d="M1.35286 0.511593L0.956576 1.25316L0.956576 1.25316L1.35286 0.511593ZM0.215008 0.856881L0.956576 1.25316L0.956576 1.25316L0.215008 0.856881ZM3.83447 1.83772L4.23075 1.09615V1.09615L3.83447 1.83772ZM4.27032 2.45878L5.10245 2.33826V2.33826L4.27032 2.45878ZM4.5117 4.12551L3.67958 4.24602L3.78389 4.96632H4.5117V4.12551ZM13.4102 4.46521L14.0854 3.96411L14.0853 3.9641L13.4102 4.46521ZM13.5398 5.20983L14.3446 5.45334V5.45333L13.5398 5.20983ZM12.0953 9.98389L11.2905 9.74038V9.74038L12.0953 9.98389ZM3.64316 9.86089L2.81103 9.98141L3.64316 9.86089ZM2.95176 5.08683L3.78389 4.96632L2.95176 5.08683ZM2.66699 3.12051L3.49912 2.99999L3.43819 2.57929L3.06327 2.37894L2.66699 3.12051ZM0.560296 1.99473L0.164016 2.7363H0.164016L0.560296 1.99473ZM5.2031 8.89957L4.37097 9.02008L4.47529 9.74038H5.2031V8.89957ZM4.75524 5.80713V4.96632H3.78389L3.92311 5.92764L4.75524 5.80713ZM10.6664 8.89957V9.74038H11.2905L11.4712 9.14308L10.6664 8.89957ZM11.6021 5.80713L12.4069 6.05064L12.735 4.96632H11.6021V5.80713ZM1.74914 -0.229976C0.930022 -0.667695 -0.0888425 -0.358513 -0.526561 0.460602L0.956576 1.25316H0.956576L1.74914 -0.229976ZM4.23075 1.09615L1.74914 -0.229976L0.956576 1.25316L3.43819 2.57929L4.23075 1.09615ZM5.10245 2.33826C5.02583 1.80921 4.70223 1.3481 4.23075 1.09615L3.43819 2.57929L3.43819 2.57929L5.10245 2.33826ZM5.34383 4.005L5.10245 2.33826L3.43819 2.57929L3.67958 4.24602L5.34383 4.005ZM12.735 3.2847H4.5117V4.96632H12.735V3.2847ZM14.0853 3.9641C13.7681 3.53669 13.2673 3.2847 12.735 3.2847V4.96632L12.735 4.96632L14.0853 3.9641ZM14.3446 5.45333C14.4987 4.94388 14.4026 4.39152 14.0854 3.96411L12.735 4.96632L12.735 4.96632L14.3446 5.45333ZM12.9 10.2274L14.3446 5.45334L12.735 4.96632L11.2905 9.74038L12.9 10.2274ZM11.2905 11.422C12.0316 11.422 12.6854 10.9368 12.9 10.2274L11.2905 9.74038L11.2905 9.74038V11.422ZM4.47529 11.422H11.2905V9.74038H4.47529V11.422ZM2.81103 9.98141C2.9308 10.8084 3.63966 11.422 4.47529 11.422V9.74038L4.47529 9.74038L2.81103 9.98141ZM2.11963 5.20734L2.81103 9.98141L4.47529 9.74038L3.78389 4.96632L2.11963 5.20734ZM1.83486 3.24102L2.11963 5.20735L3.78389 4.96632L3.49912 2.99999L1.83486 3.24102ZM0.164016 2.7363L2.27071 3.86208L3.06327 2.37894L0.956576 1.25316L0.164016 2.7363ZM-0.526561 0.460601C-0.96428 1.27972 -0.655098 2.29858 0.164016 2.7363L0.956576 1.25316L0.956576 1.25316L-0.526561 0.460601ZM6.03523 8.77906L5.58737 5.68662L3.92311 5.92764L4.37097 9.02008L6.03523 8.77906ZM10.6664 8.05876H5.2031V9.74038H10.6664V8.05876ZM10.7974 5.56362L9.86166 8.65606L11.4712 9.14308L12.4069 6.05064L10.7974 5.56362ZM4.75524 6.64794H11.6021V4.96632H4.75524V6.64794ZM4.73282 14.6781C5.89433 14.6781 6.82714 13.7322 6.82714 12.5761H5.14552C5.14552 12.8132 4.95589 12.9965 4.73282 12.9965V14.6781ZM2.6385 12.5761C2.6385 13.7322 3.57131 14.6781 4.73282 14.6781V12.9965C4.50975 12.9965 4.32012 12.8132 4.32012 12.5761H2.6385ZM4.73282 10.4741C3.57131 10.4741 2.6385 11.4201 2.6385 12.5761H4.32012C4.32012 12.3391 4.50975 12.1557 4.73282 12.1557V10.4741ZM6.82714 12.5761C6.82714 11.4201 5.89433 10.4741 4.73282 10.4741V12.1557C4.95589 12.1557 5.14552 12.3391 5.14552 12.5761H6.82714ZM10.9758 12.5761C10.9758 12.8132 10.7862 12.9965 10.5631 12.9965V14.6781C11.7246 14.6781 12.6574 13.7322 12.6574 12.5761H10.9758ZM10.5631 12.1557C10.7862 12.1557 10.9758 12.3391 10.9758 12.5761H12.6574C12.6574 11.4201 11.7246 10.4741 10.5631 10.4741V12.1557ZM10.1504 12.5761C10.1504 12.3391 10.34 12.1557 10.5631 12.1557V10.4741C9.40159 10.4741 8.46879 11.4201 8.46879 12.5761H10.1504ZM10.5631 12.9965C10.34 12.9965 10.1504 12.8132 10.1504 12.5761H8.46879C8.46879 13.7322 9.40159 14.6781 10.5631 14.6781V12.9965Z" fill="#21D695" mask="url(#path-1-inside-1_1_463)"/>
</g>
<defs>
<clipPath id="clip0_1_463">
<rect width="13.453" height="13.453" fill="white" transform="translate(0.118652 0.383667)"/>
</clipPath>
</defs>
</svg>
