<svg width="9" height="9" viewBox="0 0 9 9" fill="none" xmlns="http://www.w3.org/2000/svg">
<g clip-path="url(#clip0_16_32)">
<path fill-rule="evenodd" clip-rule="evenodd" d="M7.49792 0.71051H8.11511V1.3277V7.49957V8.11676H7.49792H4.41199C4.07112 8.11676 3.7948 7.84044 3.7948 7.49957C3.7948 7.15871 4.07112 6.88239 4.41199 6.88239H6.88074V1.94489H4.41199C4.07112 1.94489 3.7948 1.66856 3.7948 1.3277C3.7948 0.986834 4.07112 0.71051 4.41199 0.71051H7.49792ZM2.47069 5.12132C2.59121 5.24183 2.59121 5.43722 2.47069 5.55774C2.35018 5.67825 2.15479 5.67825 2.03428 5.55774L1.1085 4.63195L0.890287 4.41375L1.1085 4.19554L2.03428 3.26976C2.15479 3.14924 2.35018 3.14924 2.47069 3.26976C2.59121 3.39027 2.59121 3.58566 2.47069 3.70617L2.07172 4.10515H5.33842C5.50886 4.10515 5.64702 4.24331 5.64702 4.41375C5.64702 4.58418 5.50886 4.72234 5.33842 4.72234H2.07172L2.47069 5.12132Z" fill="white"/>
</g>
<defs>
<clipPath id="clip0_16_32">
<rect width="7.40625" height="7.40625" fill="white" transform="matrix(-1 0 0 1 8.1167 0.710968)"/>
</clipPath>
</defs>
</svg>
