<svg width="17" height="15" viewBox="0 0 17 15" fill="none" xmlns="http://www.w3.org/2000/svg">
<g clip-path="url(#clip0_1_492)">
<path fill-rule="evenodd" clip-rule="evenodd" d="M9.37531 7.56303C9.37531 8.49176 8.62242 9.24465 7.69369 9.24465C6.76496 9.24465 6.01207 8.49176 6.01207 7.56303C6.01207 6.6343 6.76496 5.88141 7.69369 5.88141C8.62242 5.88141 9.37531 6.6343 9.37531 7.56303ZM4.33028 7.56304C4.33028 8.49177 3.5774 9.24466 2.64866 9.24466C1.71993 9.24466 0.967041 8.49177 0.967041 7.56304C0.967041 6.6343 1.71993 5.88142 2.64866 5.88142C3.5774 5.88142 4.33028 6.6343 4.33028 7.56304ZM12.7394 9.24465C13.6682 9.24465 14.421 8.49176 14.421 7.56303C14.421 6.6343 13.6682 5.88141 12.7394 5.88141C11.8107 5.88141 11.0578 6.6343 11.0578 7.56303C11.0578 8.49176 11.8107 9.24465 12.7394 9.24465Z" fill="white"/>
</g>
<defs>
<clipPath id="clip0_1_492">
<rect width="15.2816" height="13.5111" fill="white" transform="translate(0.968628 0.837379)"/>
</clipPath>
</defs>
</svg>
