<svg width="9" height="8" viewBox="0 0 9 8" fill="none" xmlns="http://www.w3.org/2000/svg">
<g clip-path="url(#clip0_1_33)">
<path fill-rule="evenodd" clip-rule="evenodd" d="M7.49794 0.351135H8.11512V0.968323V7.1402V7.75739H7.49794H4.412C4.07114 7.75739 3.79481 7.48106 3.79481 7.1402C3.79481 6.79934 4.07114 6.52301 4.412 6.52301H6.88075V1.58551H4.412C4.07114 1.58551 3.79481 1.30919 3.79481 0.968323C3.79481 0.627459 4.07114 0.351135 4.412 0.351135H7.49794ZM2.47071 4.76194C2.59122 4.88246 2.59122 5.07785 2.47071 5.19836C2.35019 5.31887 2.1548 5.31887 2.03429 5.19836L1.10851 4.27258L0.890298 4.05437L1.10851 3.83616L2.03429 2.91038C2.1548 2.78987 2.35019 2.78987 2.47071 2.91038C2.59122 3.03089 2.59122 3.22628 2.47071 3.3468L2.07173 3.74578H5.33844C5.50887 3.74578 5.64703 3.88394 5.64703 4.05437C5.64703 4.2248 5.50887 4.36296 5.33844 4.36296H2.07173L2.47071 4.76194Z" fill="white"/>
</g>
<defs>
<clipPath id="clip0_1_33">
<rect width="7.40625" height="7.40625" fill="white" transform="matrix(-1 0 0 1 8.11675 0.351593)"/>
</clipPath>
</defs>
</svg>
