<svg width="16" height="17" viewBox="0 0 16 17" fill="none" xmlns="http://www.w3.org/2000/svg">
<path d="M14.9623 7.84595C14.9623 9.66534 13.9986 11.3344 12.4049 12.4501C12.0984 12.6647 11.9403 12.9617 11.8565 13.1599C11.7669 13.3723 11.711 13.5975 11.6722 13.7954C11.6047 14.1396 11.5638 14.5428 11.5289 14.8882C11.5243 14.9337 11.5198 14.9782 11.5153 15.0214C11.4909 15.2589 11.4676 15.4638 11.4413 15.637C11.2185 15.5061 10.9585 15.3259 10.6532 15.1075C10.6065 15.0741 10.5586 15.0396 10.5098 15.0045C10.186 14.7719 9.81981 14.5088 9.47462 14.3008C9.11765 14.0858 8.57553 13.7949 8 13.7949C4.01834 13.7949 1.03766 11.0039 1.03766 7.84595C1.03766 4.68801 4.01834 1.89703 8 1.89703C11.9817 1.89703 14.9623 4.68801 14.9623 7.84595Z" stroke="white" stroke-width="2.07531"/>
</svg>
