<svg width="14" height="15" viewBox="0 0 14 15" fill="none" xmlns="http://www.w3.org/2000/svg">
<g clip-path="url(#clip0_1_425)">
<path fill-rule="evenodd" clip-rule="evenodd" d="M3.63448 7.63464C3.63448 8.56337 2.88159 9.31626 1.95286 9.31626C1.02413 9.31626 0.27124 8.56337 0.27124 7.63464C0.27124 6.70591 1.02413 5.95302 1.95286 5.95302C2.88159 5.95302 3.63448 6.70591 3.63448 7.63464ZM8.67821 7.63472C8.67821 8.56346 7.92532 9.31634 6.99659 9.31634C6.06785 9.31634 5.31497 8.56346 5.31497 7.63472C5.31497 6.70599 6.06785 5.9531 6.99659 5.9531C7.92532 5.9531 8.67821 6.70599 8.67821 7.63472ZM12.0435 9.31634C12.9723 9.31634 13.7252 8.56346 13.7252 7.63472C13.7252 6.70599 12.9723 5.9531 12.0435 5.9531C11.1148 5.9531 10.3619 6.70599 10.3619 7.63472C10.3619 8.56346 11.1148 9.31634 12.0435 9.31634Z" fill="white"/>
</g>
<defs>
<clipPath id="clip0_1_425">
<rect width="13.3953" height="13.453" fill="white" transform="translate(0.273499 0.907715)"/>
</clipPath>
</defs>
</svg>
