<svg width="16" height="16" viewBox="0 0 16 16" fill="none" xmlns="http://www.w3.org/2000/svg">
<path d="M1.38551 8.12764C1.3474 8.08351 1.31105 8.04092 1.27649 8C1.31105 7.95908 1.3474 7.91649 1.38551 7.87236C1.76722 7.43037 2.31864 6.84233 2.99668 6.2569C4.38378 5.05924 6.15301 4 8 4C9.84699 4 11.6162 5.05924 13.0033 6.2569C13.6814 6.84233 14.2328 7.43037 14.6145 7.87236C14.6526 7.91649 14.689 7.95908 14.7235 8C14.689 8.04092 14.6526 8.08351 14.6145 8.12764C14.2328 8.56963 13.6814 9.15767 13.0033 9.7431C11.6162 10.9408 9.84699 12 8 12C6.15301 12 4.38378 10.9408 2.99668 9.7431C2.31864 9.15767 1.76722 8.56963 1.38551 8.12764Z" stroke="#828282" stroke-width="2"/>
<circle cx="8" cy="8" r="2" fill="#828282"/>
</svg>
