<svg width="16" height="16" viewBox="0 0 16 16" fill="none" xmlns="http://www.w3.org/2000/svg">
<g clip-path="url(#clip0_1_863)">
<mask id="path-1-inside-1_1_863" fill="white">
<path fill-rule="evenodd" clip-rule="evenodd" d="M2 1C2 0.447715 2.44772 0 3 0C3.55228 0 4 0.447715 4 1V2H12V1C12 0.447715 12.4477 0 13 0C13.5523 0 14 0.447715 14 1V2C15.1046 2 16 2.89543 16 4V14C16 15.1046 15.1046 16 14 16H2C0.895431 16 0 15.1046 0 14V4C0 2.89543 0.895431 2 2 2V1ZM14 4H2V14H14V4ZM3 7C3 6.44772 3.44772 6 4 6C4.55228 6 5 6.44772 5 7C5 7.55228 4.55228 8 4 8C3.44772 8 3 7.55228 3 7ZM8 6C7.44772 6 7 6.44772 7 7C7 7.55228 7.44772 8 8 8C8.55229 8 9 7.55228 9 7C9 6.44772 8.55229 6 8 6ZM11 7C11 6.44772 11.4477 6 12 6C12.5523 6 13 6.44772 13 7C13 7.55228 12.5523 8 12 8C11.4477 8 11 7.55228 11 7ZM4 10C3.44772 10 3 10.4477 3 11C3 11.5523 3.44772 12 4 12C4.55228 12 5 11.5523 5 11C5 10.4477 4.55228 10 4 10ZM7 11C7 10.4477 7.44772 10 8 10C8.55229 10 9 10.4477 9 11C9 11.5523 8.55229 12 8 12C7.44772 12 7 11.5523 7 11ZM12 10C11.4477 10 11 10.4477 11 11C11 11.5523 11.4477 12 12 12C12.5523 12 13 11.5523 13 11C13 10.4477 12.5523 10 12 10Z"/>
</mask>
<path fill-rule="evenodd" clip-rule="evenodd" d="M2 1C2 0.447715 2.44772 0 3 0C3.55228 0 4 0.447715 4 1V2H12V1C12 0.447715 12.4477 0 13 0C13.5523 0 14 0.447715 14 1V2C15.1046 2 16 2.89543 16 4V14C16 15.1046 15.1046 16 14 16H2C0.895431 16 0 15.1046 0 14V4C0 2.89543 0.895431 2 2 2V1ZM14 4H2V14H14V4ZM3 7C3 6.44772 3.44772 6 4 6C4.55228 6 5 6.44772 5 7C5 7.55228 4.55228 8 4 8C3.44772 8 3 7.55228 3 7ZM8 6C7.44772 6 7 6.44772 7 7C7 7.55228 7.44772 8 8 8C8.55229 8 9 7.55228 9 7C9 6.44772 8.55229 6 8 6ZM11 7C11 6.44772 11.4477 6 12 6C12.5523 6 13 6.44772 13 7C13 7.55228 12.5523 8 12 8C11.4477 8 11 7.55228 11 7ZM4 10C3.44772 10 3 10.4477 3 11C3 11.5523 3.44772 12 4 12C4.55228 12 5 11.5523 5 11C5 10.4477 4.55228 10 4 10ZM7 11C7 10.4477 7.44772 10 8 10C8.55229 10 9 10.4477 9 11C9 11.5523 8.55229 12 8 12C7.44772 12 7 11.5523 7 11ZM12 10C11.4477 10 11 10.4477 11 11C11 11.5523 11.4477 12 12 12C12.5523 12 13 11.5523 13 11C13 10.4477 12.5523 10 12 10Z" fill="white"/>
<path d="M4 2H3V3H4V2ZM12 2V3H13V2H12ZM14 2H13V3H14V2ZM2 2V3H3V2H2ZM2 4V3H1V4H2ZM14 4H15V3H14V4ZM2 14H1V15H2V14ZM14 14V15H15V14H14ZM3 -1C1.89543 -1 1 -0.10457 1 1H3V1V-1ZM5 1C5 -0.104569 4.10457 -1 3 -1V1H5ZM5 2V1H3V2H5ZM12 1H4V3H12V1ZM11 1V2H13V1H11ZM13 -1C11.8954 -1 11 -0.104569 11 1H13V1V-1ZM15 1C15 -0.104569 14.1046 -1 13 -1V1H15ZM15 2V1H13V2H15ZM17 4C17 2.34315 15.6569 1 14 1V3C14.5523 3 15 3.44772 15 4H17ZM17 14V4H15V14H17ZM14 17C15.6569 17 17 15.6569 17 14H15C15 14.5523 14.5523 15 14 15V17ZM2 17H14V15H2V17ZM-1 14C-1 15.6569 0.343146 17 2 17V15C1.44772 15 1 14.5523 1 14H-1ZM-1 4V14H1V4H-1ZM2 1C0.343146 1 -1 2.34315 -1 4H1C1 3.44772 1.44772 3 2 3V1ZM1 1V2H3V1H1ZM2 5H14V3H2V5ZM3 14V4H1V14H3ZM14 13H2V15H14V13ZM13 4V14H15V4H13ZM4 5C2.89543 5 2 5.89543 2 7H4V5ZM6 7C6 5.89543 5.10457 5 4 5V7H6ZM4 9C5.10457 9 6 8.10457 6 7H4V9ZM2 7C2 8.10457 2.89543 9 4 9V7H2ZM8 7V5C6.89543 5 6 5.89543 6 7H8ZM8 7H6C6 8.10457 6.89543 9 8 9V7ZM8 7V9C9.10457 9 10 8.10457 10 7H8ZM8 7H10C10 5.89543 9.10457 5 8 5V7ZM12 5C10.8954 5 10 5.89543 10 7H12V5ZM14 7C14 5.89543 13.1046 5 12 5V7H14ZM12 9C13.1046 9 14 8.10457 14 7H12V9ZM10 7C10 8.10457 10.8954 9 12 9V7H10ZM4 11V9C2.89543 9 2 9.89543 2 11H4ZM4 11H2C2 12.1046 2.89543 13 4 13V11ZM4 11V13C5.10457 13 6 12.1046 6 11H4ZM4 11H6C6 9.89543 5.10457 9 4 9V11ZM8 9C6.89543 9 6 9.89543 6 11H8V9ZM10 11C10 9.89543 9.10457 9 8 9V11H10ZM8 13C9.10457 13 10 12.1046 10 11H8V13ZM6 11C6 12.1046 6.89543 13 8 13V11H6ZM12 11V9C10.8954 9 10 9.89543 10 11H12ZM12 11H10C10 12.1046 10.8954 13 12 13V11ZM12 11V13C13.1046 13 14 12.1046 14 11H12ZM12 11H14C14 9.89543 13.1046 9 12 9V11Z" fill="white" mask="url(#path-1-inside-1_1_863)"/>
</g>
<defs>
<clipPath id="clip0_1_863">
<rect width="16" height="16" fill="white"/>
</clipPath>
</defs>
</svg>
