<svg width="14" height="14" viewBox="0 0 14 14" fill="none" xmlns="http://www.w3.org/2000/svg">
<g clip-path="url(#clip0_1_791)">
<path fill-rule="evenodd" clip-rule="evenodd" d="M2.17239 3.9837C3.00394 3.9837 3.67804 3.3096 3.67804 2.47806C3.67804 1.64651 3.00394 0.972412 2.17239 0.972412C1.34085 0.972412 0.666748 1.64651 0.666748 2.47806C0.666748 3.3096 1.34085 3.9837 2.17239 3.9837ZM5.18368 2.47806C5.18368 2.06229 5.52073 1.72524 5.9365 1.72524H11.9591C12.3749 1.72524 12.7119 2.06229 12.7119 2.47806C12.7119 2.89383 12.3749 3.23088 11.9591 3.23088H5.9365C5.52073 3.23088 5.18368 2.89383 5.18368 2.47806ZM2.17239 8.50064C3.00394 8.50064 3.67804 7.82654 3.67804 6.995C3.67804 6.16345 3.00394 5.48935 2.17239 5.48935C1.34085 5.48935 0.666748 6.16345 0.666748 6.995C0.666748 7.82654 1.34085 8.50064 2.17239 8.50064ZM5.18368 6.99499C5.18368 6.57922 5.52073 6.24217 5.9365 6.24217H11.9591C12.3749 6.24217 12.7119 6.57922 12.7119 6.99499C12.7119 7.41076 12.3749 7.74782 11.9591 7.74782H5.9365C5.52073 7.74782 5.18368 7.41076 5.18368 6.99499ZM2.17239 13.0176C3.00394 13.0176 3.67804 12.3435 3.67804 11.5119C3.67804 10.6804 3.00394 10.0063 2.17239 10.0063C1.34085 10.0063 0.666748 10.6804 0.666748 11.5119C0.666748 12.3435 1.34085 13.0176 2.17239 13.0176ZM5.9365 10.7591C5.52073 10.7591 5.18368 11.0962 5.18368 11.5119C5.18368 11.9277 5.52073 12.2648 5.9365 12.2648H11.9591C12.3749 12.2648 12.7119 11.9277 12.7119 11.5119C12.7119 11.0962 12.3749 10.7591 11.9591 10.7591H5.9365Z" fill="white"/>
</g>
<defs>
<clipPath id="clip0_1_791">
<rect width="13" height="13" fill="white" transform="translate(0.166748 0.359375)"/>
</clipPath>
</defs>
</svg>
