<svg width="14" height="14" viewBox="0 0 14 14" fill="none" xmlns="http://www.w3.org/2000/svg">
<g clip-path="url(#clip0_1_703)">
<mask id="path-1-inside-1_1_703" fill="white">
<path fill-rule="evenodd" clip-rule="evenodd" d="M0.21513 0.856881C0.433989 0.447324 0.943421 0.292733 1.35298 0.511593L3.83459 1.83772C4.07033 1.96369 4.23213 2.19425 4.27044 2.45878L4.51183 4.12551H12.7351C13.0013 4.12551 13.2517 4.25151 13.4103 4.46521C13.5689 4.67892 13.617 4.9551 13.5399 5.20983L12.0954 9.98389C11.9881 10.3386 11.6612 10.5812 11.2906 10.5812H4.47541C4.0576 10.5812 3.70317 10.2744 3.64328 9.86089L2.95188 5.08683L2.66711 3.12051L0.560418 1.99473C0.150861 1.77587 -0.00372979 1.26644 0.21513 0.856881ZM4.75537 5.80713L5.20322 8.89957H10.6666L11.6023 5.80713H4.75537ZM5.98645 12.5761C5.98645 13.2727 5.42523 13.8373 4.73294 13.8373C4.04065 13.8373 3.47943 13.2727 3.47943 12.5761C3.47943 11.8796 4.04065 11.3149 4.73294 11.3149C5.42523 11.3149 5.98645 11.8796 5.98645 12.5761ZM10.5632 13.8373C11.2555 13.8373 11.8167 13.2727 11.8167 12.5761C11.8167 11.8796 11.2555 11.3149 10.5632 11.3149C9.87093 11.3149 9.30972 11.8796 9.30972 12.5761C9.30972 13.2727 9.87093 13.8373 10.5632 13.8373Z"/>
</mask>
<path fill-rule="evenodd" clip-rule="evenodd" d="M0.21513 0.856881C0.433989 0.447324 0.943421 0.292733 1.35298 0.511593L3.83459 1.83772C4.07033 1.96369 4.23213 2.19425 4.27044 2.45878L4.51183 4.12551H12.7351C13.0013 4.12551 13.2517 4.25151 13.4103 4.46521C13.5689 4.67892 13.617 4.9551 13.5399 5.20983L12.0954 9.98389C11.9881 10.3386 11.6612 10.5812 11.2906 10.5812H4.47541C4.0576 10.5812 3.70317 10.2744 3.64328 9.86089L2.95188 5.08683L2.66711 3.12051L0.560418 1.99473C0.150861 1.77587 -0.00372979 1.26644 0.21513 0.856881ZM4.75537 5.80713L5.20322 8.89957H10.6666L11.6023 5.80713H4.75537ZM5.98645 12.5761C5.98645 13.2727 5.42523 13.8373 4.73294 13.8373C4.04065 13.8373 3.47943 13.2727 3.47943 12.5761C3.47943 11.8796 4.04065 11.3149 4.73294 11.3149C5.42523 11.3149 5.98645 11.8796 5.98645 12.5761ZM10.5632 13.8373C11.2555 13.8373 11.8167 13.2727 11.8167 12.5761C11.8167 11.8796 11.2555 11.3149 10.5632 11.3149C9.87093 11.3149 9.30972 11.8796 9.30972 12.5761C9.30972 13.2727 9.87093 13.8373 10.5632 13.8373Z" fill="#21D695"/>
<path d="M1.35298 0.511593L0.956698 1.25316L0.956698 1.25316L1.35298 0.511593ZM0.21513 0.856881L0.956698 1.25316L0.956698 1.25316L0.21513 0.856881ZM3.83459 1.83772L4.23087 1.09615V1.09615L3.83459 1.83772ZM4.27044 2.45878L5.10257 2.33826V2.33826L4.27044 2.45878ZM4.51183 4.12551L3.6797 4.24602L3.78401 4.96632H4.51183V4.12551ZM13.4103 4.46521L14.0855 3.96411L14.0855 3.9641L13.4103 4.46521ZM13.5399 5.20983L14.3447 5.45334V5.45333L13.5399 5.20983ZM12.0954 9.98389L11.2906 9.74038V9.74038L12.0954 9.98389ZM3.64328 9.86089L2.81115 9.98141L3.64328 9.86089ZM2.95188 5.08683L3.78401 4.96632L2.95188 5.08683ZM2.66711 3.12051L3.49924 2.99999L3.43831 2.57929L3.06339 2.37894L2.66711 3.12051ZM0.560418 1.99473L0.164138 2.7363H0.164138L0.560418 1.99473ZM5.20322 8.89957L4.3711 9.02008L4.47541 9.74038H5.20322V8.89957ZM4.75537 5.80713V4.96632H3.78401L3.92324 5.92764L4.75537 5.80713ZM10.6666 8.89957V9.74038H11.2906L11.4713 9.14308L10.6666 8.89957ZM11.6023 5.80713L12.407 6.05064L12.7351 4.96632H11.6023V5.80713ZM1.74926 -0.229976C0.930144 -0.667695 -0.0887204 -0.358513 -0.526439 0.460602L0.956698 1.25316H0.956698L1.74926 -0.229976ZM4.23087 1.09615L1.74926 -0.229976L0.956698 1.25316L3.43831 2.57929L4.23087 1.09615ZM5.10257 2.33826C5.02595 1.80921 4.70235 1.3481 4.23087 1.09615L3.43831 2.57929L3.43831 2.57929L5.10257 2.33826ZM5.34396 4.005L5.10257 2.33826L3.43831 2.57929L3.6797 4.24602L5.34396 4.005ZM12.7351 3.2847H4.51183V4.96632H12.7351V3.2847ZM14.0855 3.9641C13.7682 3.53669 13.2674 3.2847 12.7351 3.2847V4.96632L12.7351 4.96632L14.0855 3.9641ZM14.3447 5.45333C14.4988 4.94388 14.4027 4.39152 14.0855 3.96411L12.7351 4.96632L12.7351 4.96632L14.3447 5.45333ZM12.9002 10.2274L14.3447 5.45334L12.7351 4.96632L11.2906 9.74038L12.9002 10.2274ZM11.2906 11.422C12.0318 11.422 12.6855 10.9368 12.9002 10.2274L11.2906 9.74038L11.2906 9.74038V11.422ZM4.47541 11.422H11.2906V9.74038H4.47541V11.422ZM2.81115 9.98141C2.93092 10.8084 3.63978 11.422 4.47541 11.422V9.74038L4.47541 9.74038L2.81115 9.98141ZM2.11976 5.20734L2.81115 9.98141L4.47541 9.74038L3.78401 4.96632L2.11976 5.20734ZM1.83498 3.24102L2.11976 5.20735L3.78401 4.96632L3.49924 2.99999L1.83498 3.24102ZM0.164138 2.7363L2.27083 3.86208L3.06339 2.37894L0.956698 1.25316L0.164138 2.7363ZM-0.526439 0.460601C-0.964158 1.27972 -0.654976 2.29858 0.164138 2.7363L0.956698 1.25316L0.956698 1.25316L-0.526439 0.460601ZM6.03535 8.77906L5.58749 5.68662L3.92324 5.92764L4.3711 9.02008L6.03535 8.77906ZM10.6666 8.05876H5.20322V9.74038H10.6666V8.05876ZM10.7975 5.56362L9.86178 8.65606L11.4713 9.14308L12.407 6.05064L10.7975 5.56362ZM4.75537 6.64794H11.6023V4.96632H4.75537V6.64794ZM4.73294 14.6781C5.89445 14.6781 6.82726 13.7322 6.82726 12.5761H5.14564C5.14564 12.8132 4.95601 12.9965 4.73294 12.9965V14.6781ZM2.63862 12.5761C2.63862 13.7322 3.57143 14.6781 4.73294 14.6781V12.9965C4.50987 12.9965 4.32025 12.8132 4.32025 12.5761H2.63862ZM4.73294 10.4741C3.57143 10.4741 2.63862 11.4201 2.63862 12.5761H4.32025C4.32025 12.3391 4.50987 12.1557 4.73294 12.1557V10.4741ZM6.82726 12.5761C6.82726 11.4201 5.89445 10.4741 4.73294 10.4741V12.1557C4.95601 12.1557 5.14564 12.3391 5.14564 12.5761H6.82726ZM10.9759 12.5761C10.9759 12.8132 10.7863 12.9965 10.5632 12.9965V14.6781C11.7247 14.6781 12.6575 13.7322 12.6575 12.5761H10.9759ZM10.5632 12.1557C10.7863 12.1557 10.9759 12.3391 10.9759 12.5761H12.6575C12.6575 11.4201 11.7247 10.4741 10.5632 10.4741V12.1557ZM10.1505 12.5761C10.1505 12.3391 10.3402 12.1557 10.5632 12.1557V10.4741C9.40172 10.4741 8.46891 11.4201 8.46891 12.5761H10.1505ZM10.5632 12.9965C10.3402 12.9965 10.1505 12.8132 10.1505 12.5761H8.46891C8.46891 13.7322 9.40171 14.6781 10.5632 14.6781V12.9965Z" fill="#21D695" mask="url(#path-1-inside-1_1_703)"/>
</g>
<defs>
<clipPath id="clip0_1_703">
<rect width="13.453" height="13.453" fill="white" transform="translate(0.118774 0.383667)"/>
</clipPath>
</defs>
</svg>
