<svg width="14" height="15" viewBox="0 0 14 15" fill="none" xmlns="http://www.w3.org/2000/svg">
<g clip-path="url(#clip0_1_457)">
<path fill-rule="evenodd" clip-rule="evenodd" d="M8.52534 7.65635C8.52534 8.58509 7.77245 9.33798 6.84371 9.33798C5.91498 9.33798 5.16209 8.58509 5.16209 7.65635C5.16209 6.72762 5.91498 5.97473 6.84371 5.97473C7.77245 5.97473 8.52534 6.72762 8.52534 7.65635ZM3.48031 7.65636C3.48031 8.5851 2.72742 9.33798 1.79869 9.33798C0.869953 9.33798 0.117065 8.5851 0.117065 7.65636C0.117065 6.72763 0.869953 5.97474 1.79869 5.97474C2.72742 5.97474 3.48031 6.72763 3.48031 7.65636ZM11.8894 9.33798C12.8182 9.33798 13.5711 8.58509 13.5711 7.65635C13.5711 6.72762 12.8182 5.97473 11.8894 5.97473C10.9607 5.97473 10.2078 6.72762 10.2078 7.65635C10.2078 8.58509 10.9607 9.33798 11.8894 9.33798Z" fill="white"/>
</g>
<defs>
<clipPath id="clip0_1_457">
<rect width="13.453" height="13.453" fill="white" transform="translate(0.118652 0.930704)"/>
</clipPath>
</defs>
</svg>
