<svg width="18" height="17" viewBox="0 0 18 17" fill="none" xmlns="http://www.w3.org/2000/svg">
<mask id="path-1-inside-1_1_364" fill="white">
<path fill-rule="evenodd" clip-rule="evenodd" d="M1.11554 1.42174C1.37584 0.934644 1.98172 0.750785 2.46882 1.01108L5.42028 2.58828C5.70065 2.73811 5.89308 3.01231 5.93864 3.32692L6.22573 5.30922L16.0059 5.30922C16.3225 5.30922 16.6203 5.45907 16.8089 5.71324C16.9976 5.9674 17.0548 6.29587 16.9631 6.59883L15.2451 12.2768C15.1174 12.6986 14.7287 12.9871 14.2879 12.9871L6.18242 12.9871C5.6855 12.9871 5.26397 12.6223 5.19274 12.1305L4.37044 6.45255L4.03176 4.11394L1.5262 2.77502C1.03911 2.51472 0.855246 1.90884 1.11554 1.42174ZM6.51538 7.30922L7.04803 10.9871L13.5457 10.9871L14.6586 7.30922H6.51538ZM7.98043 15.3594C7.98043 16.1878 7.31296 16.8594 6.4896 16.8594C5.66624 16.8594 4.99877 16.1878 4.99877 15.3594C4.99877 14.531 5.66624 13.8594 6.4896 13.8594C7.31296 13.8594 7.98043 14.531 7.98043 15.3594ZM13.4233 16.8594C14.2467 16.8594 14.9142 16.1878 14.9142 15.3594C14.9142 14.531 14.2467 13.8594 13.4233 13.8594C12.6 13.8594 11.9325 14.531 11.9325 15.3594C11.9325 16.1878 12.6 16.8594 13.4233 16.8594Z"/>
</mask>
<path fill-rule="evenodd" clip-rule="evenodd" d="M1.11554 1.42174C1.37584 0.934644 1.98172 0.750785 2.46882 1.01108L5.42028 2.58828C5.70065 2.73811 5.89308 3.01231 5.93864 3.32692L6.22573 5.30922L16.0059 5.30922C16.3225 5.30922 16.6203 5.45907 16.8089 5.71324C16.9976 5.9674 17.0548 6.29587 16.9631 6.59883L15.2451 12.2768C15.1174 12.6986 14.7287 12.9871 14.2879 12.9871L6.18242 12.9871C5.6855 12.9871 5.26397 12.6223 5.19274 12.1305L4.37044 6.45255L4.03176 4.11394L1.5262 2.77502C1.03911 2.51472 0.855246 1.90884 1.11554 1.42174ZM6.51538 7.30922L7.04803 10.9871L13.5457 10.9871L14.6586 7.30922H6.51538ZM7.98043 15.3594C7.98043 16.1878 7.31296 16.8594 6.4896 16.8594C5.66624 16.8594 4.99877 16.1878 4.99877 15.3594C4.99877 14.531 5.66624 13.8594 6.4896 13.8594C7.31296 13.8594 7.98043 14.531 7.98043 15.3594ZM13.4233 16.8594C14.2467 16.8594 14.9142 16.1878 14.9142 15.3594C14.9142 14.531 14.2467 13.8594 13.4233 13.8594C12.6 13.8594 11.9325 14.531 11.9325 15.3594C11.9325 16.1878 12.6 16.8594 13.4233 16.8594Z" fill="white"/>
<path d="M2.46882 1.01108L2.94013 0.129111L2.94013 0.129111L2.46882 1.01108ZM1.11554 1.42174L0.233573 0.950435L0.233573 0.950435L1.11554 1.42174ZM5.42028 2.58828L4.94897 3.47025H4.94897L5.42028 2.58828ZM5.93864 3.32692L6.92832 3.18359V3.18359L5.93864 3.32692ZM6.22573 5.30922L5.23605 5.45255L5.36012 6.30922H6.22573L6.22573 5.30922ZM16.8089 5.71324L17.6119 5.11726L17.6119 5.11725L16.8089 5.71324ZM16.9631 6.59883L17.9202 6.88844L17.9202 6.88844L16.9631 6.59883ZM15.2451 12.2768L16.2022 12.5664V12.5664L15.2451 12.2768ZM5.19274 12.1305L4.20307 12.2738V12.2738L5.19274 12.1305ZM4.37044 6.45255L5.36012 6.30922L4.37044 6.45255ZM4.03176 4.11394L5.02143 3.97061L4.94897 3.47025L4.50306 3.23197L4.03176 4.11394ZM1.5262 2.77502L1.99751 1.89305V1.89305L1.5262 2.77502ZM7.04803 10.9871L6.05835 11.1305L6.18242 11.9871H7.04803V10.9871ZM6.51538 7.30922V6.30922L5.36012 6.30922L5.5257 7.45255L6.51538 7.30922ZM13.5457 10.9871L13.5457 11.9871H14.2879L14.5029 11.2768L13.5457 10.9871ZM14.6586 7.30922L15.6157 7.59883L16.0059 6.30922H14.6586V7.30922ZM2.94013 0.129111C1.96593 -0.39148 0.754165 -0.0237613 0.233573 0.950435L1.99751 1.89305H1.99751L2.94013 0.129111ZM5.89158 1.70631L2.94013 0.129111L1.99751 1.89305L4.94897 3.47025L5.89158 1.70631ZM6.92832 3.18359C6.83719 2.55437 6.45233 2.00596 5.89158 1.70631L4.94897 3.47025V3.47025L6.92832 3.18359ZM7.2154 5.16589L6.92832 3.18359L4.94897 3.47025L5.23605 5.45255L7.2154 5.16589ZM16.0059 4.30922L6.22573 4.30922L6.22573 6.30922L16.0059 6.30922V4.30922ZM17.6119 5.11725C17.2347 4.60892 16.639 4.30922 16.0059 4.30922V6.30922L16.0059 6.30922L17.6119 5.11725ZM17.9202 6.88844C18.1036 6.28252 17.9892 5.62559 17.6119 5.11726L16.0059 6.30922V6.30922L17.9202 6.88844ZM16.2022 12.5664L17.9202 6.88844L16.0059 6.30922L14.2879 11.9871L16.2022 12.5664ZM14.2879 13.9871C15.1694 13.9871 15.9469 13.4101 16.2022 12.5664L14.2879 11.9871H14.2879V13.9871ZM6.18242 13.9871L14.2879 13.9871V11.9871L6.18242 11.9871V13.9871ZM4.20307 12.2738C4.34551 13.2574 5.18858 13.9871 6.18242 13.9871V11.9871H6.18242L4.20307 12.2738ZM3.38077 6.59587L4.20307 12.2738L6.18242 11.9871L5.36012 6.30922L3.38077 6.59587ZM3.04208 4.25727L3.38077 6.59587L5.36012 6.30922L5.02143 3.97061L3.04208 4.25727ZM1.0549 3.65699L3.56045 4.99591L4.50306 3.23197L1.99751 1.89305L1.0549 3.65699ZM0.233573 0.950435C-0.287019 1.92463 0.0807003 3.1364 1.0549 3.65699L1.99751 1.89305H1.99751L0.233573 0.950435ZM8.0377 10.8438L7.50505 7.16589L5.5257 7.45255L6.05835 11.1305L8.0377 10.8438ZM13.5457 9.98714L7.04803 9.98714V11.9871L13.5457 11.9871L13.5457 9.98714ZM13.7014 7.01961L12.5886 10.6975L14.5029 11.2768L15.6157 7.59883L13.7014 7.01961ZM6.51538 8.30922H14.6586V6.30922H6.51538V8.30922ZM6.4896 17.8594C7.87102 17.8594 8.98043 16.7343 8.98043 15.3594H6.98043C6.98043 15.6413 6.75491 15.8594 6.4896 15.8594L6.4896 17.8594ZM3.99877 15.3594C3.99877 16.7343 5.10818 17.8594 6.4896 17.8594L6.4896 15.8594C6.22429 15.8594 5.99877 15.6413 5.99877 15.3594H3.99877ZM6.4896 12.8594C5.10818 12.8594 3.99877 13.9845 3.99877 15.3594H5.99877C5.99877 15.0775 6.22429 14.8594 6.4896 14.8594V12.8594ZM8.98043 15.3594C8.98043 13.9845 7.87102 12.8594 6.4896 12.8594V14.8594C6.75491 14.8594 6.98043 15.0775 6.98043 15.3594H8.98043ZM13.9142 15.3594C13.9142 15.6413 13.6886 15.8594 13.4233 15.8594V17.8594C14.8047 17.8594 15.9142 16.7343 15.9142 15.3594H13.9142ZM13.4233 14.8594C13.6886 14.8594 13.9142 15.0775 13.9142 15.3594H15.9142C15.9142 13.9845 14.8047 12.8594 13.4233 12.8594V14.8594ZM12.9325 15.3594C12.9325 15.0775 13.158 14.8594 13.4233 14.8594V12.8594C12.0419 12.8594 10.9325 13.9845 10.9325 15.3594L12.9325 15.3594ZM13.4233 15.8594C13.158 15.8594 12.9325 15.6413 12.9325 15.3594L10.9325 15.3594C10.9325 16.7343 12.0419 17.8594 13.4233 17.8594V15.8594Z" fill="white" mask="url(#path-1-inside-1_1_364)"/>
</svg>
